<svg width="94" height="22" viewBox="0 0 94 22" fill="none" xmlns="http://www.w3.org/2000/svg">
<path d="M15.4316 11.0622C15.377 11.1298 15.3283 11.1707 15.3058 11.2196C14.8359 12.2294 14.3708 13.2403 13.9021 14.2489C13.5271 15.0546 13.1474 15.8568 12.7713 16.6625C12.3216 17.6279 11.8755 18.5968 11.4281 19.5635C11.3439 19.7442 11.2585 19.9226 11.1778 20.1045C11.1386 20.1896 11.0864 20.2304 10.9832 20.2281C10.6379 20.2211 10.2926 20.2234 9.94613 20.2281C9.84171 20.2281 9.7895 20.1943 9.74323 20.0951C9.32438 19.1973 8.89722 18.303 8.47362 17.4087C8.00256 16.4141 7.5315 15.4207 7.06281 14.4261C6.72702 13.7137 6.3936 13.0013 6.06018 12.2877C5.89169 11.9239 5.72676 11.5578 5.55708 11.194C5.52979 11.1357 5.48588 11.0867 5.42656 10.9981C5.38859 11.1613 5.35892 11.2791 5.33519 11.398C5.24739 11.8481 5.16196 12.2993 5.07415 12.7506C4.96024 13.3382 4.84396 13.9271 4.72887 14.5147C4.61258 15.1082 4.49867 15.7029 4.38002 16.2963C4.26255 16.8898 4.13915 17.4822 4.02168 18.0768C3.90303 18.6796 3.78556 19.2848 3.67165 19.8888C3.60995 20.2129 3.61232 20.2129 3.28246 20.2129C2.23474 20.2129 1.18582 20.2106 0.139287 20.2164C-0.0102186 20.2164 -0.0125917 20.1581 0.0111393 20.0462C0.136914 19.4387 0.257942 18.8312 0.381343 18.2237C0.47864 17.7433 0.579497 17.263 0.674421 16.7826C0.762226 16.3383 0.842911 15.8917 0.930716 15.4475C1.04818 14.8598 1.1704 14.2734 1.28787 13.6845C1.49907 12.6316 1.71028 11.5788 1.91911 10.5259C2.05675 9.83093 2.18846 9.13484 2.32729 8.43991C2.44476 7.84642 2.57053 7.2541 2.68918 6.66061C2.87785 5.71033 3.06413 4.75888 3.25161 3.80743C3.37976 3.15797 3.50553 2.50968 3.63961 1.86023C3.64792 1.82291 3.71555 1.77161 3.75589 1.77045C4.21272 1.76462 4.67072 1.76112 5.12755 1.77278C5.18331 1.77511 5.26044 1.84973 5.28892 1.90803C5.47521 2.28698 5.65082 2.67059 5.8288 3.05303C6.18595 3.81792 6.54429 4.58165 6.90025 5.3477C7.27639 6.15573 7.65015 6.9661 8.02629 7.77296C8.3431 8.45273 8.66347 9.13251 8.98146 9.81228C9.42523 10.7614 9.869 11.7105 10.314 12.6596C10.327 12.6876 10.3258 12.7238 10.3436 12.7471C10.3721 12.7867 10.4113 12.8182 10.4457 12.8543C10.4741 12.8217 10.5109 12.7925 10.5287 12.7552C10.9345 11.9006 11.3391 11.0459 11.7402 10.1889C12.2113 9.18031 12.6776 8.1694 13.1486 7.16198C13.7419 5.89339 14.3376 4.62479 14.9308 3.35619C15.161 2.86414 15.3936 2.37443 15.619 1.87888C15.6594 1.79143 15.708 1.76462 15.7994 1.76578C16.2194 1.76811 16.6406 1.76811 17.0595 1.76578C17.1734 1.76345 17.2126 1.80659 17.2339 1.91736C17.3253 2.40358 17.4321 2.88746 17.5294 3.37252C17.616 3.81093 17.6955 4.25167 17.7821 4.68892C17.8972 5.26608 18.017 5.84208 18.1321 6.41925C18.2259 6.88448 18.3161 7.35087 18.4098 7.8161C18.5 8.25335 18.5961 8.69176 18.6839 9.13017C18.748 9.44616 18.8014 9.76447 18.8631 10.0805C18.9485 10.5142 19.041 10.9468 19.1288 11.3805C19.2214 11.8399 19.3092 12.3005 19.4029 12.7611C19.4991 13.2298 19.6011 13.6985 19.696 14.1684C19.7589 14.4844 19.8123 14.8027 19.8752 15.1199C19.9891 15.6912 20.1066 16.2625 20.2205 16.8339C20.3107 17.2828 20.3961 17.7352 20.4874 18.1829C20.5812 18.6423 20.6809 19.1006 20.7746 19.5588C20.8126 19.7418 20.847 19.9272 20.8719 20.1115C20.8755 20.1441 20.828 20.1966 20.7912 20.2164C20.7592 20.2351 20.7081 20.2211 20.6666 20.2211C19.5762 20.2187 18.4857 20.2164 17.3965 20.2176C17.3051 20.2176 17.2648 20.1989 17.247 20.1045C17.1473 19.5728 17.0429 19.0411 16.9349 18.5094C16.7961 17.825 16.6501 17.1429 16.5125 16.4584C16.4152 15.9722 16.3262 15.4848 16.2289 14.9998C16.0901 14.3095 15.9441 13.6227 15.8065 12.9336C15.689 12.3506 15.5811 11.7665 15.4672 11.1835C15.4624 11.1555 15.4494 11.1263 15.4292 11.0622M32.6994 20.1185C32.6994 17.8833 32.6971 15.6481 32.6994 13.4117C32.6994 13.365 32.7232 13.3172 32.7374 13.2694C32.7777 13.2974 32.8252 13.3172 32.8572 13.3522C33.6736 14.2232 34.4876 15.0965 35.3027 15.9699C35.8343 16.5389 36.3671 17.1067 36.8986 17.6769C37.6592 18.4919 38.4174 19.3104 39.1816 20.122C39.2266 20.1686 39.3061 20.2094 39.3702 20.2094C40.8866 20.2164 42.4007 20.2176 43.9171 20.2187C43.9598 20.2187 44.0025 20.2106 44.0713 20.2036C43.6406 19.743 43.2313 19.3058 42.8243 18.8674C42.1254 18.1165 41.4289 17.3644 40.7288 16.6135C40.1011 15.9407 39.4711 15.2703 38.8422 14.5963C38.0603 13.758 37.2807 12.9185 36.4988 12.0778C36.1653 11.7198 35.8331 11.3619 35.4961 11.0063C35.4297 10.9351 35.4309 10.8885 35.4985 10.8232C35.5816 10.7427 35.6575 10.6553 35.7346 10.5702C36.5842 9.65137 37.4338 8.73141 38.2833 7.8126C39.2195 6.79936 40.1545 5.78845 41.0907 4.77753C41.9593 3.83891 42.829 2.90146 43.6976 1.964C43.7486 1.90803 43.7996 1.85206 43.8684 1.77628C43.8139 1.76928 43.7889 1.76462 43.764 1.76462C42.2535 1.76112 40.7442 1.75879 39.2338 1.76112C39.1697 1.76112 39.0902 1.80193 39.0451 1.84857C38.4744 2.45255 37.9072 3.0612 37.34 3.66868C36.5308 4.53384 35.7239 5.40017 34.9159 6.26417C34.2372 6.99058 33.5573 7.71699 32.8762 8.44224C32.8394 8.48188 32.7908 8.5087 32.7469 8.54251C32.7315 8.48771 32.6994 8.43175 32.6994 8.37578C32.6971 6.2187 32.6971 4.06162 32.7018 1.90453C32.7018 1.79377 32.6698 1.75879 32.5594 1.75879C31.4476 1.76228 30.337 1.76228 29.2252 1.75879C29.1101 1.75879 29.084 1.79843 29.084 1.9057C29.0876 6.54401 29.0876 11.1812 29.0876 15.8195C29.0876 17.2291 29.0876 18.64 29.0852 20.0497C29.0852 20.1674 29.1113 20.2152 29.2442 20.2141C30.3441 20.2094 31.4452 20.2117 32.5464 20.2106C32.5926 20.2106 32.6389 20.2047 32.6959 20.2012C32.6982 20.1569 32.7006 20.1371 32.7006 20.1173M93.8732 20.0252C93.7131 19.6696 93.5517 19.3128 93.3879 18.9571C93.0142 18.1421 92.638 17.3294 92.2655 16.5132C91.8573 15.6177 91.4515 14.7188 91.0445 13.8233C90.7146 13.0969 90.3848 12.3716 90.0537 11.6464C89.7132 10.9025 89.3738 10.1574 89.0321 9.41467C88.7212 8.73724 88.4068 8.06096 88.0959 7.38469C87.8337 6.81102 87.5762 6.23502 87.3164 5.66135C87.0589 5.09701 86.7967 4.53501 86.5404 3.97067C86.2224 3.26874 85.9056 2.56682 85.5876 1.86372C85.5508 1.78327 85.4998 1.73313 85.3942 1.73663C85.0963 1.74479 84.7985 1.73313 84.5019 1.74479C84.4402 1.74713 84.3512 1.80309 84.3251 1.85789C84.1245 2.27648 83.9359 2.70207 83.7413 3.12533C83.4043 3.8564 83.0638 4.58514 82.7292 5.31622C82.2391 6.38543 81.7538 7.45698 81.2626 8.52386C80.8129 9.50212 80.3549 10.4769 79.9064 11.454C79.4021 12.5512 78.9061 13.6496 78.403 14.7479C78.0447 15.5326 77.6839 16.3138 77.3232 17.0974C76.9269 17.9556 76.5282 18.8137 76.1319 19.6719C76.0596 19.8305 75.9931 19.9914 75.9089 20.1838H76.1189C77.1927 20.1838 78.2665 20.1698 79.3416 20.1931C79.6797 20.2001 79.9194 20.1499 79.9894 19.7873C79.9894 19.7827 79.9953 19.778 79.9977 19.7733C80.2149 19.3034 80.4308 18.8335 80.6468 18.3636C80.9458 17.7142 81.2448 17.0636 81.5402 16.4118C81.5877 16.3057 81.6589 16.2719 81.7752 16.2719C83.8647 16.2742 85.9554 16.2742 88.0461 16.2719C88.1529 16.2719 88.2229 16.2987 88.2704 16.4048C88.4246 16.7581 88.5872 17.1079 88.7485 17.4565C89.1448 18.3135 89.5459 19.167 89.9339 20.0264C89.9909 20.1523 90.0549 20.1861 90.1819 20.1849C91.3625 20.1814 92.5443 20.1826 93.7237 20.1826H93.9231C93.9005 20.1103 93.8922 20.0637 93.8732 20.0229M85.2138 9.84609C85.495 10.4466 85.7727 11.0471 86.0515 11.6475C86.1986 11.9635 86.3398 12.283 86.4917 12.5978C86.5475 12.7144 86.5273 12.7587 86.3932 12.7587C85.3989 12.7564 84.4034 12.7587 83.4102 12.7564C83.2667 12.7564 83.2429 12.7074 83.3082 12.5652C83.5965 11.9332 83.886 11.3012 84.1756 10.6693C84.3832 10.2134 84.5909 9.75748 84.8009 9.30274C84.8175 9.26776 84.8412 9.23511 84.8875 9.15699C85.0097 9.41701 85.1129 9.63038 85.2126 9.84726M67.3194 20.2117C68.4087 20.2117 69.4991 20.2094 70.5884 20.2141C70.7189 20.2141 70.7355 20.1674 70.7355 20.059C70.7331 17.6874 70.7331 15.3158 70.7331 12.9453C70.7331 12.7109 70.7331 12.7121 70.9716 12.7098C71.8485 12.7016 72.7277 12.7529 73.5975 12.6072C73.951 12.5477 74.307 12.4707 74.6428 12.3506C74.9549 12.2399 75.2491 12.0755 75.5363 11.9111C76.2897 11.4785 76.9317 10.9235 77.4051 10.1982C78.015 9.26193 78.2262 8.22187 78.2096 7.12584C78.2001 6.39709 78.0518 5.694 77.7409 5.03405C77.366 4.23768 76.8249 3.56257 76.1391 2.99823C75.6988 2.63561 75.1981 2.37676 74.6701 2.17155C73.9083 1.87655 73.1027 1.78327 72.2946 1.77161C70.6358 1.74946 68.9758 1.75995 67.317 1.75062C67.1711 1.75062 67.1296 1.7856 67.1296 1.93252C67.1331 7.96535 67.1331 13.9982 67.1331 20.0298V20.1989C67.2031 20.2024 67.2601 20.2094 67.317 20.2094M70.7296 5.4748C70.7296 5.32671 70.7782 5.2859 70.923 5.29057C71.47 5.30689 72.017 5.30689 72.5652 5.32322C73.2724 5.3442 73.8751 5.58323 74.2845 6.17672C74.6464 6.70025 74.7318 7.26576 74.5111 7.8709C74.3331 8.35829 74.0389 8.76172 73.5381 8.94478C73.1857 9.07421 72.8025 9.15116 72.4263 9.18381C71.9137 9.22812 71.3952 9.2048 70.8803 9.21529C70.7391 9.21879 70.7319 9.13717 70.7319 9.03223C70.7343 8.43175 70.7319 7.83126 70.7319 7.23078C70.7319 6.63029 70.7355 6.06129 70.7284 5.47596M21.4664 12.7028C23.1833 12.7028 24.899 12.7028 26.616 12.7063C26.7453 12.7063 26.7596 12.655 26.7607 12.5477C26.7679 11.4773 26.7774 10.4069 26.7916 9.33772C26.794 9.23162 26.756 9.20013 26.654 9.20013C24.9323 9.20247 23.2106 9.20247 21.4877 9.20013C21.3821 9.20013 21.3536 9.23628 21.3548 9.33889C21.3631 10.1539 21.3655 10.9666 21.3702 11.7816C21.3702 12.0825 21.3702 12.3845 21.3702 12.6958C21.4236 12.7016 21.445 12.7051 21.4664 12.7051" fill="black"/>
<path d="M65.2667 11.4948C65.4257 8.41542 64.3768 5.69866 62.2102 3.44714C60.0423 1.17929 57.3311 0.0296216 54.1737 0.000471897C48.4391 -0.0519977 43.2811 4.27616 42.943 10.4279C42.6095 16.4782 47.3237 21.7823 53.8474 21.998C59.7576 22.1065 64.9547 17.7095 65.2762 11.4866M61.7735 10.9736C61.77 15.2551 58.2673 18.5397 54.1143 18.535C49.7443 18.5292 46.4338 15.0476 46.4409 11.0097C46.448 6.71891 49.9863 3.4518 54.1013 3.46346C58.4405 3.46346 61.7783 6.94511 61.7735 10.9748M56.8481 16.9983C56.8446 16.9295 56.8398 16.8805 56.8398 16.8304C56.8398 13.7696 56.8398 10.7078 56.8375 7.64703C56.8375 7.53976 56.8529 7.48962 56.9822 7.49079C58.0193 7.49779 59.0563 7.49546 60.0946 7.49779C60.339 7.49779 60.3402 7.50012 60.3402 7.73565C60.3402 9.5954 60.3425 11.4552 60.3378 13.3149C60.3378 13.4245 60.2998 13.5423 60.2524 13.6437C59.7837 14.664 59.1263 15.5466 58.1973 16.2077C57.8116 16.4829 57.388 16.7033 56.981 16.947C56.9466 16.9668 56.9063 16.9761 56.8493 16.9983M55.8479 13.772C55.8479 14.9088 55.8455 16.048 55.8514 17.186C55.8514 17.3224 55.823 17.3784 55.6711 17.4134C54.8393 17.6093 54.0004 17.6326 53.1568 17.5311C52.9159 17.502 52.6798 17.4402 52.4425 17.3854C52.4093 17.3772 52.3772 17.3282 52.363 17.2909C52.3487 17.2548 52.3582 17.2082 52.3582 17.1673C52.3582 14.8703 52.3582 12.5733 52.3535 10.2752C52.3535 10.1446 52.4188 10.1481 52.5101 10.1481C53.4677 10.1516 54.424 10.1539 55.3816 10.1562C55.4029 10.1562 55.4231 10.1562 55.4445 10.1562C55.575 10.1609 55.7458 10.1201 55.8242 10.1854C55.8894 10.239 55.8479 10.4186 55.8479 10.5434C55.8479 11.6184 55.8479 12.6946 55.8479 13.7696M51.3473 17.0088C50.8715 16.7884 50.4372 16.5319 50.0326 16.2287C49.4097 15.7623 48.8793 15.2061 48.4711 14.552C48.2445 14.1894 48.0511 13.8035 47.8814 13.4117C47.8149 13.2601 47.8493 13.0619 47.8529 12.8858C47.8529 12.8567 47.93 12.8089 47.9751 12.8054C48.0914 12.7937 48.2089 12.8019 48.3251 12.8019C49.2827 12.8019 50.2391 12.8042 51.1978 12.7984C51.3236 12.7984 51.3627 12.8334 51.3615 12.9581C51.358 14.264 51.3592 15.5699 51.3592 16.8758C51.3592 16.9155 51.3509 16.9551 51.3461 17.0088" fill="#4FB848"/>
</svg>
